<mxfile host="app.diagrams.net" modified="2024-04-03T15:03:58.583Z" agent="Mozilla/5.0 (Windows NT 10.0; Win64; x64) AppleWebKit/537.36 (KHTML, like Gecko) Chrome/123.0.0.0 Safari/537.36" version="24.2.2" etag="oPBX5GYApph2o-iD392Z" type="github">
  <diagram name="Страница — 1" id="mnrUx7IvFL5Lqf37nDay">
    <mxGraphModel>
      <root>
        <mxCell id="0" />
        <mxCell id="1" parent="0" />
      </root>
    </mxGraphModel>
  </diagram>
</mxfile>
